<svg xmlns="http://www.w3.org/2000/svg" xmlns:xlink="http://www.w3.org/1999/xlink" width="63" height="76.463" viewBox="0 0 63 76.463">
  <defs>
    <clipPath id="clip-path">
      <rect id="Rechteck_211" data-name="Rechteck 211" width="63" height="67" transform="translate(0 -0.5)" fill="none"/>
    </clipPath>
    <clipPath id="clip-path-2">
      <path id="Pfad_1693" data-name="Pfad 1693" d="M0,1.27H62.847V-4.916H0Z" transform="translate(0 4.916)" fill="none"/>
    </clipPath>
  </defs>
  <g id="footer-de-mac-logo" transform="translate(-270 -5886.367)">
    <g id="Gruppe_2009" data-name="Gruppe 2009" transform="translate(270 5896.33)">
      <path id="Pfad_1688" data-name="Pfad 1688" d="M181.7,233.111h3.926l-1.963-4.792Z" transform="translate(-151.372 -190.246)" fill="#fff"/>
      <g id="Gruppe_2008" data-name="Gruppe 2008" transform="translate(0 0)">
        <g id="Gruppe_2007" data-name="Gruppe 2007" transform="translate(0 0)" clip-path="url(#clip-path)">
          <path id="Pfad_1689" data-name="Pfad 1689" d="M100.227,85.506v-.071c0-3.948-2.706-6.24-6.782-6.24H90.669V91.746h2.776c4.076,0,6.782-2.256,6.782-6.24" transform="translate(-75.414 -65.814)" fill="#fff"/>
          <path id="Pfad_1690" data-name="Pfad 1690" d="M0,66.233H62.59V0H0ZM34.269,7.05H54.053v5.817H41.016V16.6H52.823V22H41.016v3.913H54.228v5.817H34.269Zm10,36.139a4.7,4.7,0,0,0,.876,1.478,4.063,4.063,0,0,0,3.093,1.372,4.526,4.526,0,0,0,2.143-.464,8.311,8.311,0,0,0,1.742-1.267l2.069,2.09a10.718,10.718,0,0,1-1.182,1.1,7.028,7.028,0,0,1-1.341.834,6.949,6.949,0,0,1-1.594.528,9.62,9.62,0,0,1-1.942.179,7.653,7.653,0,0,1-3.019-.591,7.285,7.285,0,0,1-3.99-4.032,7.784,7.784,0,0,1-.57-2.977v-.042A7.674,7.674,0,0,1,42.71,36a7.343,7.343,0,0,1,2.428-1.647,7.9,7.9,0,0,1,3.124-.6,9.775,9.775,0,0,1,1.889.169,7.888,7.888,0,0,1,1.552.464,6.753,6.753,0,0,1,1.288.718,8.737,8.737,0,0,1,1.1.929l-2.069,2.385a7.839,7.839,0,0,0-1.763-1.224,4.49,4.49,0,0,0-2.016-.443,4.119,4.119,0,0,0-1.72.359,4.073,4.073,0,0,0-1.362.992,4.625,4.625,0,0,0-.887,1.467,4.983,4.983,0,0,0-.317,1.784v.042a5.066,5.066,0,0,0,.317,1.794M8.2,7.05h9.487c8.785,0,13.88,5.077,13.88,12.2v.071c0,7.121-5.166,12.409-14.021,12.409H8.2Zm6.8,52.011-.915-2.017H9.832L8.917,59.06H8.362l3.352-7.254h.514L15.58,59.06Zm.527-13.613L11.4,39.2v9.584H8.2V34.006h3.5l3.884,6.248,3.884-6.248h3.5V48.783H19.764V39.136l-4.159,6.312Zm7.534,12.659a4.818,4.818,0,0,1-1.218.754,3.91,3.91,0,0,1-1.609.323A3.788,3.788,0,0,1,18.7,58.89a3.317,3.317,0,0,1-1.136-.8,3.5,3.5,0,0,1-.709-1.178,4.143,4.143,0,0,1-.247-1.435v-.021a3.976,3.976,0,0,1,.252-1.4,3.644,3.644,0,0,1,.72-1.188,3.527,3.527,0,0,1,1.126-.823,3.4,3.4,0,0,1,1.46-.309,4.87,4.87,0,0,1,.807.062,3.39,3.39,0,0,1,.679.185,3.729,3.729,0,0,1,.6.3,4.6,4.6,0,0,1,.55.4l-.35.4a3.914,3.914,0,0,0-.961-.617,3.253,3.253,0,0,0-1.352-.247,2.789,2.789,0,0,0-1.2.257,2.917,2.917,0,0,0-.941.7,3.158,3.158,0,0,0-.612,1.027,3.537,3.537,0,0,0-.216,1.233v.021a3.853,3.853,0,0,0,.211,1.294,2.915,2.915,0,0,0,.612,1.027,2.85,2.85,0,0,0,.972.678,3.225,3.225,0,0,0,1.29.246,3.365,3.365,0,0,0,.668-.067,3.849,3.849,0,0,0,.622-.179,3.914,3.914,0,0,0,.55-.261,3.168,3.168,0,0,0,.452-.313V55.819H20.135v-.484h2.92Zm7.341.954H25.224v-7.2h5.12v.483H25.759v2.85h4.123v.483H25.759v2.9H30.4Zm7.938,0h-.4l-5.069-6.4v6.4H32.35v-7.2h.5l4.966,6.266V51.858h.514ZM36.525,48.783l-1.351-3.314H28.926l-1.351,3.314H24.26L30.593,33.9h3l6.333,14.882Zm9.711,9.655a3.683,3.683,0,0,1-.648.4,3.606,3.606,0,0,1-.745.257,3.882,3.882,0,0,1-.874.093A3.514,3.514,0,0,1,41.4,58.108a3.573,3.573,0,0,1-.745-1.178,3.923,3.923,0,0,1-.267-1.451v-.021a3.833,3.833,0,0,1,.273-1.441,3.767,3.767,0,0,1,.751-1.188,3.477,3.477,0,0,1,2.576-1.1,4.247,4.247,0,0,1,.874.082,3.382,3.382,0,0,1,.725.237,3.787,3.787,0,0,1,.627.365,5.994,5.994,0,0,1,.571.468l-.381.391a5.755,5.755,0,0,0-.493-.422,3.107,3.107,0,0,0-.55-.334,3.258,3.258,0,0,0-.637-.221,3.208,3.208,0,0,0-.745-.082,2.915,2.915,0,0,0-2.164.931,3.23,3.23,0,0,0-.638,1.024,3.419,3.419,0,0,0-.231,1.266v.021a3.388,3.388,0,0,0,.236,1.271,3.282,3.282,0,0,0,.643,1.029,2.975,2.975,0,0,0,.961.689,2.872,2.872,0,0,0,1.2.252,3,3,0,0,0,1.357-.288,4.359,4.359,0,0,0,1.121-.834l.36.35a6.785,6.785,0,0,1-.591.509M51.31,56.2v2.86h-.535V56.21L47.69,51.858h.668l2.694,3.869,2.7-3.869h.638Z" transform="translate(0.242 0.267)" fill="#fff"/>
          <path id="Pfad_1691" data-name="Pfad 1691" d="M60.746,320.58H64.54l-1.892-4.167Z" transform="translate(-50.446 -263.753)" fill="#fff"/>
        </g>
      </g>
    </g>
    <g id="Gruppe_2012" data-name="Gruppe 2012" transform="translate(270 5886.367)">
      <g id="Gruppe_2011" data-name="Gruppe 2011" transform="translate(0 0)" clip-path="url(#clip-path-2)">
        <g id="Gruppe_2010" data-name="Gruppe 2010" transform="translate(0 0)">
          <path id="Pfad_1692" data-name="Pfad 1692" d="M1.081.328A2.7,2.7,0,0,0,.112-.685,2.906,2.906,0,0,0-.774-1.03a5.61,5.61,0,0,0-1.255-.122H-4.185V4.795h2.1a6.346,6.346,0,0,0,1.229-.1A2.938,2.938,0,0,0,.1,4.323a2.77,2.77,0,0,0,.958-1.008,2.92,2.92,0,0,0,.38-1.487,3.049,3.049,0,0,0-.354-1.5M-.347,2.808a1.468,1.468,0,0,1-.614.641,1.789,1.789,0,0,1-.5.182,4.7,4.7,0,0,1-.8.049h-.388V-.042h.388A4.809,4.809,0,0,1-1.522,0a1.763,1.763,0,0,1,.481.157A1.489,1.489,0,0,1-.365.811a2.183,2.183,0,0,1,.214,1,2.252,2.252,0,0,1-.2.993m7.253.837H4.13V2.175H6.706V1.025H4.13V0H6.906v-1.15h-4.3V4.795h4.3Zm5.722-1.719a2.161,2.161,0,0,0-1.009-.609,6.368,6.368,0,0,0-.649-.176l-.628-.132a2.031,2.031,0,0,1-.68-.229.417.417,0,0,1-.18-.362A.4.4,0,0,1,9.594.14a.692.692,0,0,1,.268-.182,1.461,1.461,0,0,1,.365-.1,2.774,2.774,0,0,1,.381-.026,3.021,3.021,0,0,1,1.065.194,3.2,3.2,0,0,1,.881.481h.164V-.86a5.379,5.379,0,0,0-.993-.286,5.966,5.966,0,0,0-1.16-.115,3.252,3.252,0,0,0-1.915.526A1.6,1.6,0,0,0,7.9.621a1.626,1.626,0,0,0,.33,1.037,2.2,2.2,0,0,0,1.081.661,5.428,5.428,0,0,0,.7.177c.249.047.484.1.708.15a1.172,1.172,0,0,1,.486.218.433.433,0,0,1,.166.339.419.419,0,0,1-.115.318.9.9,0,0,1-.289.18,1.465,1.465,0,0,1-.371.081c-.152.015-.274.024-.367.024A3.457,3.457,0,0,1,9.1,3.6a3.56,3.56,0,0,1-1.065-.583H7.869V4.444A6.643,6.643,0,0,0,8.9,4.772a5.628,5.628,0,0,0,1.289.131,3.336,3.336,0,0,0,2.022-.55,1.7,1.7,0,0,0,.745-1.427,1.5,1.5,0,0,0-.325-1M17.219,3.74h-.975V-.1h.975V-1.152H13.735V-.1h.975V3.74h-.975V4.795h3.483Zm6.51-2.221H20.985V2.642H22.17V3.808c-.058.005-.122.009-.194.013s-.135,0-.193,0A2.1,2.1,0,0,1,20.237,3.3a2.045,2.045,0,0,1-.523-1.51A2.31,2.31,0,0,1,19.86.939a1.637,1.637,0,0,1,.993-.976,2.145,2.145,0,0,1,.739-.121,2.327,2.327,0,0,1,.657.092,2.7,2.7,0,0,1,.541.22A3.779,3.779,0,0,1,23.2.416c.145.1.253.181.328.238H23.7V-.741a5.013,5.013,0,0,0-1.182-.422A5.731,5.731,0,0,0,21.4-1.268a3.309,3.309,0,0,0-2.416.848,2.99,2.99,0,0,0-.867,2.235,3.012,3.012,0,0,0,.859,2.279,3.285,3.285,0,0,0,2.376.824,5.725,5.725,0,0,0,1.314-.154,7.829,7.829,0,0,0,1.058-.31Zm6.781-2.672H29.1V2.254L26.936-1.152H25.1V4.795h1.406V.713l2.524,4.082h1.477Zm5.82,4.8H33.553V2.175h2.576V1.025H33.553V0h2.776v-1.15h-4.3V4.795h4.3ZM42.88.328a2.711,2.711,0,0,0-.968-1.013,2.927,2.927,0,0,0-.887-.345,5.594,5.594,0,0,0-1.255-.122H37.615V4.795h2.1a6.346,6.346,0,0,0,1.229-.1,2.938,2.938,0,0,0,.955-.367,2.762,2.762,0,0,0,.959-1.008,2.919,2.919,0,0,0,.379-1.487,3.035,3.035,0,0,0-.354-1.5m-1.427,2.48a1.478,1.478,0,0,1-.615.641,1.761,1.761,0,0,1-.5.182,4.692,4.692,0,0,1-.8.049h-.388V-.042h.388A4.8,4.8,0,0,1,40.277,0a1.749,1.749,0,0,1,.481.157,1.489,1.489,0,0,1,.677.653,2.167,2.167,0,0,1,.214,1,2.27,2.27,0,0,1-.2.993m10.494-.793a1.671,1.671,0,0,0-.925-.479V1.5a1.5,1.5,0,0,0,.643-.513,1.3,1.3,0,0,0,.228-.761,1.3,1.3,0,0,0-.166-.661,1.173,1.173,0,0,0-.5-.462,2.219,2.219,0,0,0-.661-.211,8.329,8.329,0,0,0-1.053-.048H47.2V4.795h2.6a4.268,4.268,0,0,0,1.068-.112,2.238,2.238,0,0,0,.773-.375,1.59,1.59,0,0,0,.477-.564,1.668,1.668,0,0,0,.174-.77,1.342,1.342,0,0,0-.341-.959M50.26.866a.489.489,0,0,1-.272.238,1.122,1.122,0,0,1-.4.081q-.257.011-.619.011h-.24V-.061h.143c.3,0,.535,0,.7.005a1.255,1.255,0,0,1,.418.07.457.457,0,0,1,.262.219.663.663,0,0,1,.074.3.827.827,0,0,1-.064.337m.346,2.465a.632.632,0,0,1-.33.266,1.344,1.344,0,0,1-.513.1q-.279,0-.925,0h-.112V2.223h.335c.229,0,.448,0,.658,0a1.9,1.9,0,0,1,.495.057.666.666,0,0,1,.372.229.748.748,0,0,1,.109.438.8.8,0,0,1-.089.381m6.37-4.484L55.736,1.142,54.454-1.152H52.707l2.229,3.718V4.795H56.47v-2.3l2.193-3.647Z" transform="translate(4.185 1.268)" fill="#fff"/>
        </g>
      </g>
    </g>
  </g>
</svg>
