<svg id="icon-discord" xmlns="http://www.w3.org/2000/svg" width="43.929" height="43.929" viewBox="0 0 43.929 43.929">
  <path id="Pfad_18" data-name="Pfad 18" d="M58.367,77A2.719,2.719,0,0,0,55.8,79.881,2.608,2.608,0,1,0,58.367,77Z" transform="translate(-41.183 -56.83)" fill="#fff"/>
  <path id="Pfad_19" data-name="Pfad 19" d="M94.693,77a2.886,2.886,0,1,0,2.567,2.881A2.685,2.685,0,0,0,94.693,77Z" transform="translate(-67.975 -56.83)" fill="#fff"/>
  <path id="Pfad_20" data-name="Pfad 20" d="M38.009,0H5.92A5.914,5.914,0,0,0,0,5.92V38.009a5.914,5.914,0,0,0,5.92,5.92H38.009a5.914,5.914,0,0,0,5.92-5.92V5.92A5.948,5.948,0,0,0,38.009,0ZM36.175,29.181a23.913,23.913,0,0,1-7.256,3.641,17.478,17.478,0,0,1-1.546-2.515,15.142,15.142,0,0,0,2.462-1.179c-.21-.131-.393-.288-.6-.445a17.146,17.146,0,0,1-14.512,0,5.114,5.114,0,0,1-.6.445,14.89,14.89,0,0,0,2.436,1.179,17.478,17.478,0,0,1-1.545,2.515,23.617,23.617,0,0,1-7.256-3.641A23.932,23.932,0,0,1,12,12.914a24.629,24.629,0,0,1,5.92-1.834,16.889,16.889,0,0,1,.76,1.545,21.285,21.285,0,0,1,6.575,0,16.889,16.889,0,0,1,.76-1.545,24.568,24.568,0,0,1,5.92,1.807A24.042,24.042,0,0,1,36.175,29.181Z" fill="#fff"/>
</svg>
