<svg id="icon-magiceden" xmlns="http://www.w3.org/2000/svg" width="43.929" height="43.929" viewBox="0 0 43.929 43.929">
  <path id="icon-magiceden-2" data-name="icon-magiceden" d="M38.009,0H5.92A5.914,5.914,0,0,0,0,5.92V38.009a5.914,5.914,0,0,0,5.92,5.92H38.009a5.914,5.914,0,0,0,5.92-5.92V5.92A5.948,5.948,0,0,0,38.009,0ZM37.04,15.35a2.169,2.169,0,0,1-.76,1.362,2.357,2.357,0,0,1-1.493.524H28.4a.1.1,0,0,0-.079.026c-.026.026-.052.052-.052.079a.131.131,0,0,0,0,.157l1.781,2.069a4.3,4.3,0,0,1,.445.524,2.8,2.8,0,0,1,.838,1.965,3.718,3.718,0,0,1-1.153,2.1l-1.231,1.441-.655.76c-.026.026-.026.052-.052.1a.157.157,0,0,0,.026.1c.026.026.026.052.079.079.026.026.052.026.1.026h6.444a2.128,2.128,0,0,1,2.148,2.1,2.08,2.08,0,0,1-.655,1.519,2.272,2.272,0,0,1-1.545.629H24.728c-.655,0-2.462.079-2.96-1.441a1.83,1.83,0,0,1-.052-1,4.3,4.3,0,0,1,.681-1.336c.5-.76,1.048-1.519,1.6-2.227.707-.969,1.415-1.886,2.122-2.855a.158.158,0,0,0,.026-.1c0-.052-.026-.079-.026-.1l-2.541-3.012c-.026-.026-.026-.052-.052-.052s-.052-.026-.079-.026a.1.1,0,0,0-.079.026.056.056,0,0,0-.052.052c-.681.917-3.693,4.977-4.348,5.789a2.21,2.21,0,0,1-3.091,0L11.84,20.642a.136.136,0,0,0-.1-.052h-.1c-.026.026-.052.026-.079.079a.2.2,0,0,0-.026.1v7.649A2.609,2.609,0,0,1,9.771,30.91a2.277,2.277,0,0,1-1.022.1,2.564,2.564,0,0,1-.969-.367,2.341,2.341,0,0,1-.681-.76,2.224,2.224,0,0,1-.236-1V15.141a2.373,2.373,0,0,1,.524-1.362,2.328,2.328,0,0,1,1.231-.812,2.459,2.459,0,0,1,2.358.629l6.182,6.1c.026.026.052.026.079.052h.079a.1.1,0,0,0,.079-.026.056.056,0,0,0,.052-.052L21.82,13.7a2.14,2.14,0,0,1,1.65-.786H34.892a2.721,2.721,0,0,1,.917.183,1.937,1.937,0,0,1,.733.55,1.971,1.971,0,0,1,.445.786A2.15,2.15,0,0,1,37.04,15.35Z" fill="#fff"/>
</svg>
